HIERARCHY
ROOT Hips
{
  OFFSET 0 0 0
  CHANNELS 6 Xposition Yposition Zposition Zrotation Yrotation Xrotation
  JOINT LeftThigh
  {
    OFFSET 8.409438 0 -5.917753
    CHANNELS 3 Zrotation Yrotation Xrotation
    JOINT LeftLeg
    {
      OFFSET 0 0 -42.358652
      CHANNELS 3 Zrotation Yrotation Xrotation
      JOINT LeftFoot
      {
        OFFSET 0 0 -39.357303
        CHANNELS 3 Zrotation Yrotation Xrotation
      }
    }
  }
  JOINT RightThigh
  {
    OFFSET -8.409438 0 -5.917753
    CHANNELS 3 Zrotation Yrotation Xrotation
    JOINT RightLeg
    {
      OFFSET 0 0 -42.358652
      CHANNELS 3 Zrotation Yrotation Xrotation
      JOINT RightFoot
      {
        OFFSET 0 0 -39.357303
        CHANNELS 3 Zrotation Yrotation Xrotation
      }
    }
  }
  JOINT SpineLow
  {
    OFFSET 0 0 4.719101
    CHANNELS 3 Zrotation Yrotation Xrotation
    JOINT SpineMid
    {
      OFFSET 0 0 12.899191
      CHANNELS 3 Zrotation Yrotation Xrotation
      JOINT Chest
      {
        OFFSET 0 0 12.899191
        CHANNELS 3 Zrotation Yrotation Xrotation
        JOINT LeftShoulder
        {
          OFFSET 7.550562 1.41573 9.438202
          CHANNELS 3 Zrotation Yrotation Xrotation
          JOINT LeftArm
          {
            OFFSET 9.155056 0 4.247191
            CHANNELS 3 Zrotation Yrotation Xrotation
            JOINT LeftForearm
            {
              OFFSET 0 0 25.771955
              CHANNELS 3 Zrotation Yrotation Xrotation
              JOINT LeftHand
              {
                OFFSET 0 0 25.197169
                CHANNELS 3 Zrotation Yrotation Xrotation
              }
            }
          }
        }
        JOINT RightShoulder
        {
          OFFSET -7.550562 1.41573 9.438202
          CHANNELS 3 Zrotation Yrotation Xrotation
          JOINT RightArm
          {
            OFFSET -9.155056 0 4.247191
            CHANNELS 3 Zrotation Yrotation Xrotation
            JOINT RightForearm
            {
              OFFSET 0 0 -25.771955
              CHANNELS 3 Zrotation Yrotation Xrotation
              JOINT RightHand
              {
                OFFSET 0 0 -25.197169
                CHANNELS 3 Zrotation Yrotation Xrotation
              }
            }
          }
        }
        JOINT Neck
        {
          OFFSET 0 0 15.101124
          CHANNELS 3 Zrotation Yrotation Xrotation
          JOINT Head
          {
            OFFSET 0 0 11.325843
            CHANNELS 3 Zrotation Yrotation Xrotation
            End Site
            {
              OFFSET 0 0 14.157303
            }
          }
        }
      }
    }
  }
}
MOTION
Frames: 13
Frame Time: 0.0
0.0  89.887642  0.0  5.936685  -21.759072  -101.516683  23.011483  -12.213864  2.693739  -1.674406  6.141848  26.787324  6.000061  2.25612  3.614029  0.057135  12.779346  -9.179126  4.846358  5.132794  21.599162  3.070646  0.511144  -0.0927  1.984809  0.361698  1.341024  5.443712  0.877564  3.69259  5.443712  0.877564  3.69259  -0.169636  18.689834  2.108917  139.556844  35.764869  -170.480524  -11.278797  -2.762034  34.846472  86.486958  -2.362504  6.922759  -6.937848  5.949366  18.029351  55.480419  23.688001  16.855639  22.336234  20.618973  -47.735652  119.218546  -8.086136  -29.994168  -9.769112  0.684565  -2.451784  -7.324142  0.552798  -1.828426  
0.0  89.887642  0.0  5.962559  -22.102263  -101.679359  22.937294  -12.243984  2.964007  -1.454977  6.047833  26.769979  6.085683  2.266567  3.626527  0.164865  12.772472  -9.026532  4.960033  5.071226  21.470733  2.986149  0.468868  -0.042595  1.989438  0.36732  1.365052  5.456975  0.890668  3.758746  5.456975  0.890668  3.758746  0.164908  18.402541  2.040671  140.463685  35.570576  -170.108578  -11.649844  -2.633433  35.357485  86.578302  -2.571486  6.665552  -7.029723  5.907602  17.554272  56.541729  24.135624  17.440479  22.23815  20.807465  -48.605934  119.444042  -7.498519  -30.000997  -9.692353  0.732256  -2.340669  -7.266489  0.586503  -1.744384  
0.0  89.887642  0.0  5.981784  -22.400345  -101.821056  23.104163  -12.319963  3.390077  -1.282412  5.95851  26.652808  6.094689  2.238832  3.579104  0.402734  12.739506  -8.78266  5.036185  5.042745  21.320237  2.838241  0.41923  -0.022421  1.99606  0.368448  1.377332  5.475288  0.892349  3.792463  5.475288  0.892349  3.792464  0.333769  18.139791  2.023732  141.04333  35.393926  -169.819661  -10.800329  -2.615319  36.566001  85.779822  -1.817632  5.502826  -7.183166  5.822991  17.109039  57.34568  24.498092  17.844446  21.943732  20.669469  -49.432679  119.850068  -6.949634  -30.221027  -9.490855  0.797539  -2.118849  -7.115365  0.631252  -1.577175  
0.0  89.887642  0.0  6.013331  -22.740847  -101.998763  23.06154  -12.348284  3.730581  -0.983166  5.796574  26.547193  6.156681  2.236137  3.583119  0.594714  12.750467  -8.551262  4.969189  5.026471  21.130197  2.794738  0.380751  0.004311  2.003674  0.364782  1.386169  5.495982  0.881165  3.816385  5.495982  0.881165  3.816385  0.580846  17.926378  2.078078  141.56901  35.220048  -169.651451  -10.991068  -2.743649  36.914471  86.031764  -1.90969  5.290437  -7.20445  5.719686  16.756083  58.455  24.870526  18.397186  21.629589  20.449099  -50.229906  119.819257  -6.589899  -30.613687  -9.364568  0.871911  -1.931755  -7.020619  0.683735  -1.435825  
0.0  89.887642  0.0  5.969568  -22.962262  -102.093753  23.212609  -12.462445  4.167392  -0.779004  5.658072  26.339232  6.098248  2.185458  3.504939  0.665513  12.688143  -8.349367  4.686118  5.050595  20.872011  2.866349  0.384819  0.047052  2.000258  0.360417  1.397837  5.486527  0.868477  3.847849  5.486528  0.868477  3.847849  0.718403  17.68702  2.033172  140.891216  35.18945  -169.486504  -10.985572  -3.001852  37.23526  85.594811  -1.211609  4.524767  -7.454648  5.587752  16.298324  59.442857  25.22534  18.798463  21.566948  20.126721  -50.943261  119.498459  -6.364831  -31.023222  -9.191351  0.900119  -1.754908  -6.890856  0.70168  -1.302964  
0.0  89.887642  0.0  5.985334  -23.268167  -102.245536  23.236208  -12.483368  4.533254  -0.517556  5.454067  26.142284  6.135272  2.17167  3.502386  0.854887  12.690209  -8.115131  4.608066  5.030937  20.651664  2.823762  0.361018  0.082841  2.014592  0.360177  1.412684  5.525856  0.865738  3.888549  5.525856  0.865738  3.888549  0.826457  17.469041  2.018699  141.057414  35.105355  -169.459941  -11.026304  -3.209441  37.40792  85.712326  -1.147046  4.541717  -7.49353  5.453355  15.966618  60.504073  25.637581  19.267326  21.223524  19.557846  -51.683617  119.162197  -6.143674  -31.403921  -9.080351  0.913879  -1.619361  -6.807755  0.709663  -1.201229  
0.0  89.887642  0.0  5.950643  -23.431773  -102.29577  23.363357  -12.55396  4.915658  -0.377738  5.287143  25.875892  6.092549  2.139991  3.436033  0.815708  12.642902  -8.007236  4.373864  5.069735  20.40795  2.928158  0.363893  0.142498  2.015878  0.356026  1.414136  5.529136  0.854209  3.892178  5.529136  0.854209  3.892178  0.781238  17.29947  2.012434  140.81054  35.190108  -169.495649  -11.179777  -3.367224  37.433415  85.70792  -0.92705  4.498934  -7.818442  5.346966  15.586648  61.742713  26.000922  19.759435  20.947718  18.890298  -52.343014  118.69412  -6.027292  -31.583835  -8.939441  0.919405  -1.47398  -6.702266  0.711301  -1.092288  
0.0  89.887642  0.0  5.9763  -23.691102  -102.382731  23.406073  -12.523111  5.216246  -0.119063  5.072063  25.661619  6.136239  2.129109  3.441785  0.986763  12.658225  -7.865838  4.295267  5.050598  20.222272  2.904188  0.335622  0.189295  2.022223  0.355044  1.419741  5.546479  0.850683  3.907476  5.546479  0.850683  3.907477  0.811915  17.221815  2.034866  140.762154  35.338588  -169.630456  -11.160505  -3.430725  37.578433  85.778407  -0.77441  4.549269  -7.742975  5.266271  15.385798  62.610708  26.432133  20.098083  20.668424  18.177935  -52.955155  118.203356  -5.95904  -31.647475  -8.804531  0.927801  -1.390721  -6.601184  0.716068  -1.029903  
0.0  89.887642  0.0  5.970074  -23.762351  -102.326486  23.322056  -12.480639  5.406604  0.136312  4.873416  25.438954  6.131907  2.129937  3.437181  0.838298  12.7215  -7.927418  4.354584  4.989396  20.087857  2.928304  0.307524  0.244207  1.987953  0.356872  1.404507  5.452772  0.858966  3.865622  5.452772  0.858966  3.865621  0.775924  17.190072  2.014203  140.297747  35.586629  -169.838431  -11.370448  -3.461158  37.588974  85.76807  -0.504217  4.507363  -7.868232  5.20412  15.122026  63.693087  26.775977  20.475856  20.491635  17.514013  -53.460229  117.585771  -6.056385  -31.550169  -8.566757  0.939307  -1.303733  -6.422956  0.722929  -0.964834  
0.0  89.887642  0.0  6.014473  -23.971501  -102.35476  23.279058  -12.383145  5.609243  0.448743  4.677128  25.273876  6.152308  2.118207  3.440932  0.905706  12.788199  -7.893837  4.316994  4.942339  19.967621  2.884083  0.272337  0.275418  1.985983  0.363338  1.404917  5.44778  0.876702  3.86726  5.44778  0.876702  3.86726  0.804023  17.18563  2.037513  140.014456  35.864779  -170.102578  -11.409312  -3.402424  37.721926  85.802195  -0.361519  4.570149  -7.672042  5.148347  15.030966  64.233722  27.180116  20.620247  20.380062  16.936819  -53.891361  116.949428  -6.19988  -31.366641  -8.41045  0.938882  -1.298149  -6.305737  0.722193  -0.960883  
0.0  89.887642  0.0  6.000899  -23.912329  -102.240804  22.98813  -12.275743  5.686595  0.648215  4.510327  25.067847  6.24792  2.15965  3.497435  0.471635  12.901052  -8.102654  4.199371  4.915176  19.87343  3.096596  0.2393  0.351428  1.970147  0.371611  1.400982  5.404959  0.900542  3.857006  5.404959  0.900542  3.857006  0.528374  17.167329  1.963493  139.504795  36.173664  -170.297122  -11.498011  -3.323279  37.754691  85.701959  -0.08767  4.494998  -7.805577  5.068471  14.823035  64.823022  27.496989  20.770985  20.362459  16.494881  -54.230026  116.343834  -6.367579  -31.087004  -8.274505  0.924748  -1.310182  -6.203796  0.71146  -0.970303  
0.0  89.887642  0.0  6.069811  -24.029765  -102.256448  22.842347  -12.119732  5.837358  0.950802  4.354386  24.958655  6.281796  2.147267  3.502925  0.358882  13.031034  -8.168647  4.170039  4.862138  19.859256  3.088195  0.193474  0.385271  1.982497  0.385287  1.396786  5.439468  0.937501  3.846837  5.439468  0.937501  3.846837  0.29541  17.175132  2.034774  139.213233  36.496855  -170.520272  -11.499621  -3.215322  37.790757  85.661467  0.060634  4.544373  -7.654442  5.01654  14.864639  65.10137  27.838588  20.808078  20.327894  16.182367  -54.520569  115.819593  -6.510104  -30.786848  -8.210332  0.920915  -1.327029  -6.155652  0.708671  -0.983087  
0.0  89.887642  0.0  6.080195  -23.8014  -102.058428  22.364701  -11.901742  5.76557  1.139802  4.218798  24.833928  6.406776  2.19394  3.580071  -0.571145  13.229587  -8.657416  4.22256  4.764621  19.916206  3.368513  0.182631  0.473742  1.953939  0.395187  1.367047  5.361627  0.968618  3.766049  5.361627  0.968618  3.766049  -0.074174  17.220192  2.113569  138.714071  36.792011  -170.666581  -11.32111  -3.149967  37.905883  85.392414  0.525188  4.367013  -7.681691  5.009075  14.891734  65.359912  28.136524  20.813881  20.427544  15.998742  -54.724874  115.396418  -6.606685  -30.488394  -8.250854  0.919876  -1.365359  -6.18599  0.708499  -1.011796  
